# xmcd
#
# Track frame offsets: 
#        150
#        14313
#        27533
#        42093
#        55553
#        69199
#        79590
#        91438
#        105126
#        118686
#        131348
#        144625
#        158120
#        172137
#        185310
#        199452
#        213861
#        225914
#
# Disc length: 3213 seconds
#
# Revision: 5
# Processed by: cddbd v1.5.2PL0 Copyright (c) Steve Scherf et al.
# Submitted via: ExactAudioCopy v1.0b3
#
DISCID=e30c8b12
DTITLE=John Lee Hooker - Treasures From The Blues, Disc 5
DYEAR=2008
DGENRE=Blues
TTITLE0=Boogie Chillen
TTITLE1=Hoogie boogie
TTITLE2=Do the boogie
TTITLE3=Drifting from door to door
TTITLE4=Hobo blues
TTITLE5=See see baby
TTITLE6=Howlin' Wolf
TTITLE7=Miss Lorraine
TTITLE8=Crawling kingsnake
TTITLE9=Moon is rising
TTITLE10=She was in chicago
TTITLE11=Never satisfied
TTITLE12=Talkin' boogie
TTITLE13=No friend around
TTITLE14=Notoriety woman
TTITLE15=Sally Mae
TTITLE16=How can I do it
TTITLE17=Shady Grove blues
EXTD=
EXTT0=
EXTT1=
EXTT2=
EXTT3=
EXTT4=
EXTT5=
EXTT6=
EXTT7=
EXTT8=
EXTT9=
EXTT10=
EXTT11=
EXTT12=
EXTT13=
EXTT14=
EXTT15=
EXTT16=
EXTT17=
PLAYORDER=
